<svg width="112" height="112" viewBox="0 0 112 112" fill="none" xmlns="http://www.w3.org/2000/svg">
<path d="M60.6825 82.36H50.6775C49.9561 82.36 49.3725 81.7764 49.3725 81.055V75.3746L46.2224 74.0587L42.195 78.0861C41.9521 78.329 41.6186 78.4667 41.2743 78.4667C40.9263 78.4667 40.5964 78.329 40.3535 78.0861L33.2775 71.0101C32.7664 70.499 32.7664 69.6725 33.2775 69.1614L37.294 65.1485L35.9999 61.9911H30.305C29.5836 61.9911 29 61.4075 29 60.6861V50.6811C29 49.9597 29.5836 49.3761 30.305 49.3761H35.9854L37.3013 46.226L33.2775 42.195C32.77 41.6839 32.77 40.861 33.2775 40.3499L40.3499 33.2739C40.8392 32.7809 41.7056 32.7809 42.195 33.2739L46.2115 37.294L49.3725 35.9999V30.305C49.3725 29.5836 49.9561 29 50.6775 29H60.6825C61.4039 29 61.9875 29.5836 61.9875 30.305V35.9854L65.134 37.3012L69.1578 33.2739C69.6471 32.7845 70.5171 32.7809 71.0065 33.2739L78.0825 40.3499C78.3254 40.5927 78.4631 40.9262 78.4631 41.2706C78.4631 41.6186 78.3254 41.9485 78.0825 42.1914L74.0624 46.2079L75.3565 49.3689H81.055C81.7764 49.3689 82.36 49.9525 82.36 50.6739V60.6789C82.36 61.4002 81.7764 61.9839 81.055 61.9839H75.3746L74.0588 65.1304L78.0861 69.1541C78.329 69.397 78.4668 69.7305 78.4668 70.0785C78.4668 70.4265 78.329 70.76 78.0861 71.0029L71.0101 78.0789C70.7673 78.3217 70.4338 78.4595 70.0858 78.4595C69.7378 78.4595 69.4043 78.3217 69.1614 78.0789L65.1485 74.0587L61.9911 75.3529V81.055C61.9875 81.7764 61.4039 82.36 60.6825 82.36ZM51.9825 79.75H59.3775V74.4865C59.3775 73.9572 59.7001 73.4824 60.1895 73.2794L64.96 71.3219C65.4457 71.1152 66.004 71.2349 66.381 71.6046L70.0858 75.3166L75.3166 70.0858L71.5901 66.3665C71.2168 65.9895 71.1044 65.4276 71.311 64.9382L73.3047 60.1823C73.5078 59.6965 73.9826 59.3775 74.5083 59.3775H79.75V51.9825H74.4865C73.9573 51.9825 73.4824 51.6635 73.2794 51.1741L71.3219 46.4036C71.1225 45.9179 71.2349 45.356 71.6046 44.9862L75.3166 41.2779L70.0858 36.047L66.3665 39.7699C65.9895 40.1432 65.4276 40.2592 64.9383 40.0526L60.1823 38.0625C59.6965 37.8595 59.3775 37.3846 59.3775 36.859V31.61H51.9825V36.8735C51.9825 37.4027 51.6635 37.8812 51.1741 38.0806L46.4036 40.0381C45.9142 40.2339 45.3596 40.1251 44.9862 39.7517L41.2779 36.0434L36.0506 41.2742L39.7735 45.0007C40.1469 45.3741 40.2593 45.9396 40.0526 46.429L38.0625 51.185C37.8595 51.6707 37.3846 51.9861 36.859 51.9861H31.61V59.3811H36.8735C37.4027 59.3811 37.8813 59.7038 38.0806 60.1931L40.0381 64.9636C40.2375 65.453 40.1251 66.0112 39.7517 66.3846L36.047 70.0894L41.2743 75.3202L45.0007 71.5937C45.3777 71.2167 45.9396 71.1116 46.429 71.3146L51.185 73.3084C51.6707 73.5114 51.9861 73.9862 51.9861 74.5119L51.9825 79.75ZM55.68 67.86C48.9629 67.86 43.5 62.3935 43.5 55.68C43.5 48.9665 48.9629 43.5 55.68 43.5C62.3971 43.5 67.86 48.9629 67.86 55.68C67.86 62.3971 62.3971 67.86 55.68 67.86ZM55.68 46.11C50.402 46.11 46.11 50.4056 46.11 55.68C46.11 60.958 50.4056 65.25 55.68 65.25C60.958 65.25 65.25 60.958 65.25 55.68C65.25 50.402 60.958 46.11 55.68 46.11ZM55.68 111.36C39.2624 111.36 24.0845 104.353 13.485 92.0097V106.43H10.875V87H30.305V89.6136H14.8734C24.998 101.808 39.7227 108.75 55.68 108.75C84.941 108.75 108.75 84.9446 108.75 55.68H111.364C111.36 86.3837 86.3838 111.36 55.68 111.36ZM2.61 55.68H0C0 24.9762 24.9762 0 55.68 0C72.0976 0 87.2755 7.00713 97.875 19.3466V4.93H100.489V24.36H81.055V21.75H96.4866C86.362 9.55187 71.6336 2.61 55.68 2.61C26.4154 2.61 2.61 26.4154 2.61 55.68Z" fill="white"/>
</svg>
